<svg xmlns="http://www.w3.org/2000/svg" width="189" height="24" viewBox="0 0 189 24">
    <g fill="#4E18C5">
        <g>
            <path d="M0 5.23h3.333v1.46h.06C4.241 5.658 5.908 4.8 7.726 4.8c3.514 0 5.726 2.09 5.726 5.667V20.4h-3.424v-9.074c0-2.233-.848-3.52-3.12-3.52-2.121 0-3.454 1.23-3.454 3.177V20.4H0V5.23zM16.509 20.4L19.566 20.4 19.566 5.4 16.509 5.4zM22.623 5.23h3.333v1.46h.06c.849-1.031 2.515-1.89 4.333-1.89 3.514 0 5.726 2.09 5.726 5.667V20.4H32.65v-9.074c0-2.233-.848-3.52-3.12-3.52-2.121 0-3.454 1.23-3.454 3.177V20.4h-3.454V5.23zM45.292 4.8c4.175 0 7.292 2.953 7.292 7.8v.947H41.389c.09 2.396 1.452 4.04 3.994 4.04 1.866 0 2.943-.873 3.658-1.732l2.461 1.88c-1.266 1.488-3.167 2.665-6.059 2.665-4.357 0-7.534-3.009-7.534-7.8 0-4.792 3.177-7.8 7.383-7.8zm0 2.813c-2.481 0-3.752 1.839-3.873 3.538h7.806c-.12-1.978-1.362-3.538-3.933-3.538zM55.61 8.194h-2.415V5.446h2.506V1.8h3.261v3.646h2.86l1.156 2.748h-3.986V15.7c0 1.543.333 2.216 2.084 2.216h1.268V21h-1.54c-4.016 0-5.193-1.683-5.193-4.964V8.194zM67.131 5.4L71.232 15.618 71.291 15.618 75.393 5.4 78.875 5.4 71.032 24 67.79 24 69.668 19.566 63.589 5.4zM19.566 1.5c0 .828-.684 1.5-1.529 1.5-.844 0-1.528-.672-1.528-1.5S17.193 0 18.037 0c.845 0 1.529.672 1.529 1.5M88.658 5.23h3.333v1.46h.06c.849-1.031 2.515-1.89 4.333-1.89 3.514 0 5.726 2.09 5.726 5.667V20.4h-3.424v-9.074c0-2.233-.848-3.52-3.12-3.52-2.12 0-3.454 1.23-3.454 3.177V20.4h-3.454V5.23zM105.167 20.4L108.224 20.4 108.224 5.4 105.167 5.4zM111.282 5.23h3.332v1.46h.06c.849-1.031 2.515-1.89 4.333-1.89 3.514 0 5.726 2.09 5.726 5.667V20.4h-3.423v-9.074c0-2.233-.849-3.52-3.12-3.52-2.122 0-3.455 1.23-3.455 3.177V20.4h-3.453V5.23zM133.95 4.8c4.176 0 7.292 2.953 7.292 7.8v.947h-11.195c.09 2.396 1.452 4.04 3.994 4.04 1.866 0 2.943-.873 3.658-1.732l2.461 1.88c-1.266 1.488-3.166 2.665-6.059 2.665-4.357 0-7.534-3.009-7.534-7.8 0-4.792 3.177-7.8 7.383-7.8zm0 2.813c-2.48 0-3.752 1.839-3.873 3.538h7.806c-.12-1.978-1.361-3.538-3.933-3.538zM108.224 1.5c0 .828-.684 1.5-1.528 1.5s-1.529-.672-1.529-1.5.685-1.5 1.529-1.5c.844 0 1.528.672 1.528 1.5" transform="translate(47.758)"></path>
        </g>
        <path d="M3.273 4.207L13.927 14.587 24.803 4 38.613 17.489 35.326 20.677 24.669 10.307 13.927 21 0 7.403z" transform="matrix(-1 0 0 1 38.613 0)"></path>
    </g>
</svg>